<svg xmlns="http://www.w3.org/2000/svg" viewBox="0 0 192 192" role="img" aria-label="Lover Secret icon">
  <defs>
    <linearGradient id="bg" x1="0" y1="0" x2="1" y2="1">
      <stop offset="0" stop-color="#fb7185" />
      <stop offset="1" stop-color="#f43f5e" />
    </linearGradient>
  </defs>
  <rect width="192" height="192" rx="44" fill="url(#bg)" />
  <circle cx="96" cy="96" r="54" fill="#fff" fill-opacity="0.2" />
  <path d="M96 139c-1.6 0-3.2-.5-4.5-1.6-16.8-13.5-28.3-24-34.6-31.3-5.9-6.8-8.9-13.5-8.9-20.5 0-14.5 11.2-25.6 25.7-25.6 8.9 0 17.1 4.2 22.3 11.2C101 64.2 109.2 60 118.1 60 132.6 60 144 71.1 144 85.6c0 7-3 13.7-8.9 20.5-6.3 7.3-17.8 17.8-34.6 31.3-1.3 1.1-2.9 1.6-4.5 1.6z" fill="#fff"/>
</svg>
