<svg xmlns="http://www.w3.org/2000/svg" viewBox="0 0 512 512" role="img" aria-label="Lover Secret icon">
  <defs>
    <linearGradient id="bg" x1="0" y1="0" x2="1" y2="1">
      <stop offset="0" stop-color="#fb7185" />
      <stop offset="1" stop-color="#f43f5e" />
    </linearGradient>
  </defs>
  <rect width="512" height="512" rx="116" fill="url(#bg)" />
  <circle cx="256" cy="256" r="146" fill="#fff" fill-opacity="0.2" />
  <path d="M256 370c-4.1 0-8.2-1.3-11.4-4-45.4-36.5-76.5-64.7-93.6-84.6-16-18.3-24-36.8-24-55.7 0-39.2 30.1-69.4 69.4-69.4 24 0 46.1 11.2 59.6 30.4 13.5-19.2 35.6-30.4 59.6-30.4 39.2 0 69.4 30.1 69.4 69.4 0 18.9-8 37.4-24 55.7-17.1 19.9-48.2 48.1-93.6 84.6-3.2 2.7-7.3 4-11.4 4z" fill="#fff"/>
</svg>
